<svg xmlns="http://www.w3.org/2000/svg" xmlns:xlink="http://www.w3.org/1999/xlink" width="500" zoomAndPan="magnify" viewBox="0 0 375 374.999991" height="500" preserveAspectRatio="xMidYMid meet" version="1.0"><defs><g/><clipPath id="0f68df3691"><path d="M 38 156 L 337 156 L 337 243.75 L 38 243.75 Z M 38 156 " clip-rule="nonzero"/></clipPath><clipPath id="9414bafcaa"><path d="M 171 37.5 L 212 37.5 L 212 76 L 171 76 Z M 171 37.5 " clip-rule="nonzero"/></clipPath></defs><g clip-path="url(#0f68df3691)"><path fill="#f5f5dc" d="M 186.191406 216.664062 C 186.191406 212.8125 186.773438 209.117188 187.917969 205.664062 C 189.304688 201.511719 192.546875 198.304688 196.59375 197.035156 C 196.664062 197.011719 196.722656 196.988281 196.792969 196.964844 C 197.152344 196.859375 197.515625 196.765625 197.863281 196.671875 C 197.945312 196.648438 198.039062 196.625 198.121094 196.601562 C 198.4375 196.519531 198.761719 196.449219 199.078125 196.382812 C 199.101562 196.371094 199.125 196.371094 199.148438 196.359375 C 199.519531 196.289062 199.871094 196.21875 200.234375 196.148438 C 200.246094 196.148438 200.257812 196.148438 200.269531 196.148438 C 210.824219 194.328125 216.199219 199.984375 218.578125 203.832031 C 220.152344 207.71875 220.980469 212.148438 220.980469 216.664062 C 220.980469 230.625 213.179688 241.984375 203.589844 241.984375 C 193.992188 241.984375 186.191406 230.625 186.191406 216.664062 Z M 93.328125 237.527344 C 89.363281 237.527344 85.828125 235.03125 84.535156 231.324219 C 84.058594 229.949219 83.636719 228.429688 83.300781 226.820312 C 82.527344 223.136719 80.101562 220.046875 76.789062 218.5625 C 75.238281 217.875 73.511719 217.515625 71.660156 217.492188 C 68.054688 217.457031 64.488281 218.808594 61.59375 221.304688 C 58.644531 223.859375 54.921875 228.082031 53.582031 233.949219 L 45.835938 233.949219 C 46.1875 232.199219 47.363281 231.101562 47.363281 231.101562 C 51.0625 227.847656 51.832031 225.1875 51.773438 223.417969 C 51.726562 222.097656 50.617188 221.070312 49.300781 221.070312 L 45.113281 221.070312 L 45.847656 217.78125 C 49.570312 217.398438 64.589844 215.847656 79.625 214.296875 C 81.792969 214.0625 83.964844 213.839844 86.097656 213.617188 C 86.632812 213.574219 87.160156 213.515625 87.683594 213.457031 L 88.476562 213.375 C 88.78125 213.339844 89.003906 213.316406 89.304688 213.269531 C 90.425781 213.082031 91.476562 212.734375 92.464844 212.265625 C 93.457031 211.8125 94.355469 211.214844 95.160156 210.539062 C 95.976562 209.839844 96.59375 209.140625 97.269531 208.5 C 98.589844 207.203125 99.882812 206.015625 101.109375 204.953125 C 103.558594 202.855469 105.726562 201.269531 107.3125 200.300781 C 107.570312 200.136719 107.804688 199.996094 108.023438 199.867188 C 107.839844 200.578125 107.664062 201.292969 107.5 201.992188 C 106.8125 204.941406 106.332031 207.9375 106.066406 210.960938 C 105.820312 213.980469 105.796875 217.035156 106.101562 220.070312 C 106.148438 220.5 106.207031 220.921875 106.25 221.339844 L 87.230469 222.832031 L 106.578125 223.394531 C 106.648438 223.800781 106.742188 224.199219 106.824219 224.605469 C 106.847656 224.675781 106.859375 224.746094 106.871094 224.816406 L 90.355469 225.808594 L 107.382812 226.820312 C 107.382812 226.820312 107.394531 226.832031 107.394531 226.832031 C 107.5 227.207031 107.628906 227.566406 107.746094 227.929688 C 107.78125 228.058594 107.828125 228.1875 107.859375 228.304688 L 93.902344 228.910156 L 108.632812 230.308594 C 108.675781 230.425781 108.734375 230.542969 108.828125 230.707031 C 108.945312 230.925781 109.074219 231.101562 109.203125 231.300781 C 109.738281 232.023438 110.4375 232.640625 111.230469 233.0625 C 112.023438 233.492188 112.910156 233.738281 113.808594 233.785156 L 114.148438 233.796875 L 139.210938 233.796875 L 139.351562 233.785156 L 139.632812 233.773438 C 139.714844 233.773438 139.851562 233.75 139.96875 233.726562 L 140.332031 233.667969 C 140.574219 233.621094 140.773438 233.550781 140.996094 233.492188 C 141.847656 233.214844 142.640625 232.734375 143.292969 232.117188 C 144.613281 230.878906 145.335938 229.027344 145.183594 227.230469 L 145.089844 226.554688 L 144.996094 226.003906 L 144.785156 224.910156 L 144.425781 222.738281 C 143.96875 219.824219 143.621094 216.882812 143.410156 213.945312 C 143.1875 210.996094 143.09375 208.054688 143.117188 205.105469 C 143.164062 202.152344 143.304688 199.203125 143.621094 196.277344 C 143.808594 194.703125 144.003906 193.128906 144.261719 191.550781 C 144.855469 191.402344 146 191.121094 147.597656 190.722656 C 148.191406 190.574219 148.867188 190.398438 149.589844 190.222656 C 150.316406 190.058594 151.109375 189.894531 151.949219 189.710938 C 153.628906 189.347656 155.503906 188.90625 157.605469 188.519531 C 158.652344 188.320312 159.738281 188.113281 160.871094 187.902344 C 161.429688 187.785156 162 187.667969 162.585938 187.550781 C 163.167969 187.445312 163.761719 187.355469 164.355469 187.238281 C 166.757812 186.816406 169.289062 186.339844 171.925781 185.929688 C 174.550781 185.511719 177.269531 185.054688 180.03125 184.648438 C 181.421875 184.4375 182.808594 184.226562 184.207031 184.007812 C 185.605469 183.808594 187.019531 183.597656 188.429688 183.398438 C 191.242188 182.980469 194.050781 182.59375 196.828125 182.210938 C 199.601562 181.824219 202.332031 181.488281 204.980469 181.136719 C 207.628906 180.800781 210.179688 180.507812 212.605469 180.179688 C 213.820312 180.03125 215 179.878906 216.140625 179.738281 C 217.285156 179.585938 218.378906 179.433594 219.441406 179.292969 C 221.550781 179.003906 223.5 178.746094 225.214844 178.511719 C 226.929688 178.257812 228.433594 178.046875 229.671875 177.859375 C 232.132812 177.5 233.542969 177.265625 233.542969 177.265625 C 233.542969 177.265625 232.109375 177.277344 229.625 177.394531 C 228.375 177.441406 226.859375 177.511719 225.121094 177.613281 C 223.394531 177.71875 221.4375 177.859375 219.3125 178.023438 C 217.179688 178.1875 214.871094 178.386719 212.433594 178.617188 C 209.996094 178.851562 207.429688 179.132812 204.769531 179.421875 C 202.121094 179.714844 199.382812 180.007812 196.59375 180.34375 C 193.804688 180.671875 190.972656 181.007812 188.148438 181.382812 C 185.328125 181.742188 182.492188 182.105469 179.71875 182.515625 C 176.941406 182.898438 174.210938 183.339844 171.566406 183.75 C 168.929688 184.148438 166.375 184.625 163.960938 185.03125 C 161.546875 185.417969 159.273438 185.90625 157.160156 186.316406 C 155.0625 186.699219 153.136719 187.179688 151.433594 187.550781 C 150.582031 187.738281 149.777344 187.925781 149.042969 188.089844 C 148.320312 188.273438 147.644531 188.449219 147.050781 188.601562 C 146.082031 188.859375 145.289062 189.066406 144.679688 189.230469 C 144.785156 188.683594 144.902344 188.125 145.03125 187.574219 C 145.300781 186.1875 145.683594 184.835938 146.035156 183.46875 C 155.855469 180.890625 167.34375 178.304688 179.949219 176.273438 C 181.023438 176.15625 216.164062 171.980469 224.851562 170.792969 L 242.054688 168.519531 C 246 167.992188 250.011719 169.160156 253.054688 171.703125 C 253.601562 172.15625 254.09375 172.648438 254.558594 173.160156 C 254.164062 173.054688 253.765625 173.007812 253.359375 173.007812 C 249.542969 173.007812 246.558594 177.40625 246.558594 183.003906 C 246.558594 186.574219 247.769531 189.640625 249.613281 191.402344 C 249.460938 191.425781 249.3125 191.449219 249.148438 191.472656 C 247.921875 191.65625 246.488281 191.867188 244.960938 192.089844 C 243.433594 192.324219 241.800781 192.578125 240.167969 192.824219 C 238.535156 193.082031 236.902344 193.324219 235.363281 193.558594 C 233.832031 193.804688 232.410156 194.046875 231.1875 194.246094 C 229.960938 194.46875 228.945312 194.644531 228.234375 194.785156 C 227.523438 194.910156 227.128906 194.992188 227.128906 194.992188 C 227.128906 194.992188 227.535156 194.980469 228.257812 194.957031 C 228.980469 194.921875 230.007812 194.863281 231.257812 194.792969 C 232.492188 194.714844 233.925781 194.621094 235.476562 194.503906 C 237.019531 194.375 238.664062 194.246094 240.320312 194.117188 C 241.964844 193.988281 243.609375 193.851562 245.148438 193.734375 C 246.699219 193.59375 248.132812 193.476562 249.367188 193.371094 C 251.597656 193.171875 253.148438 193.035156 253.429688 193.011719 C 255.421875 192.976562 257.183594 191.75 258.394531 189.769531 C 259.121094 192.472656 260.753906 195.84375 264.378906 198.351562 C 260.144531 199.496094 255.902344 200.964844 251.679688 202.773438 C 239.980469 207.765625 226.054688 208.054688 222.789062 208.054688 L 222.089844 206.203125 C 222.007812 205.96875 221.542969 204.683594 220.539062 203.015625 C 220.527344 202.992188 220.527344 202.96875 220.515625 202.949219 L 220.433594 202.796875 C 217.855469 198.5625 212.023438 192.289062 200.722656 193.921875 C 200.605469 193.933594 200.5 193.957031 200.394531 193.96875 C 200.199219 194 200 194.035156 199.800781 194.070312 C 199.496094 194.117188 199.183594 194.175781 198.867188 194.246094 C 198.761719 194.269531 198.65625 194.292969 198.554688 194.316406 C 198.273438 194.375 197.980469 194.445312 197.691406 194.515625 C 197.574219 194.550781 197.46875 194.574219 197.351562 194.609375 C 196.96875 194.703125 196.59375 194.804688 196.195312 194.921875 C 196.195312 194.921875 196.1875 194.921875 196.1875 194.933594 L 196.117188 194.945312 C 196.082031 194.957031 196.035156 194.980469 195.988281 194.992188 C 188.347656 197.3125 181.445312 202.304688 176.511719 209.046875 C 171.890625 215.367188 166.164062 225.386719 164.800781 237.527344 Z M 76.183594 232.234375 C 74.492188 232.234375 73.117188 229.65625 73.117188 226.496094 C 73.117188 223.324219 74.492188 220.746094 76.183594 220.746094 C 76.277344 220.746094 76.371094 220.757812 76.453125 220.769531 C 77.804688 221.492188 78.9375 222.542969 79.789062 223.824219 C 79.976562 224.710938 80.066406 225.621094 80.066406 226.554688 C 80.066406 231.347656 77.515625 235.382812 74.480469 235.382812 C 71.554688 235.382812 69.351562 231.59375 69.351562 226.554688 C 69.351562 223.417969 69.921875 221.09375 71.0625 219.625 C 71.203125 219.625 71.355469 219.613281 71.507812 219.613281 C 71.554688 219.613281 71.601562 219.613281 71.636719 219.613281 C 72.488281 219.625 73.316406 219.71875 74.085938 219.90625 C 72.570312 220.746094 71.460938 223.382812 71.460938 226.496094 C 71.460938 230.285156 73.105469 233.363281 75.136719 233.363281 C 76.089844 233.363281 76.941406 232.6875 77.59375 231.582031 C 77.175781 231.988281 76.699219 232.234375 76.183594 232.234375 Z M 65.359375 227.148438 C 65.359375 224.921875 65.710938 222.714844 66.375 220.746094 C 67.027344 220.453125 67.695312 220.207031 68.371094 220.035156 C 67.613281 221.738281 67.226562 223.917969 67.226562 226.554688 C 67.226562 232.898438 70.28125 237.515625 74.480469 237.515625 C 77.933594 237.515625 80.863281 234.273438 81.839844 229.832031 C 82.050781 230.589844 82.285156 231.324219 82.527344 232.023438 C 82.621094 232.28125 82.714844 232.535156 82.832031 232.792969 C 81.375 237.867188 78.0625 241.25 74.480469 241.25 C 69.453125 241.25 65.359375 234.925781 65.359375 227.148438 Z M 46.035156 201.523438 C 46.640625 200.742188 47.574219 200.21875 48.660156 200.007812 L 98.273438 190.863281 C 98.367188 190.851562 106.929688 189.3125 109.574219 193.242188 C 108.539062 193.722656 107.546875 194.257812 106.578125 194.839844 C 105.285156 195.609375 104.046875 196.449219 102.835938 197.335938 C 100.421875 199.085938 98.144531 201.011719 95.953125 203.003906 C 95.40625 203.507812 94.855469 204.007812 94.320312 204.523438 L 93.515625 205.292969 C 93.257812 205.546875 93.015625 205.757812 92.746094 205.980469 C 91.695312 206.84375 90.472656 207.496094 89.164062 207.890625 C 88.839844 207.996094 88.5 208.078125 88.175781 208.148438 C 88.011719 208.183594 87.871094 208.21875 87.671875 208.242188 L 87.148438 208.3125 L 80.570312 209.117188 L 46.851562 213.257812 L 47.667969 209.570312 C 47.925781 209.535156 48.25 209.492188 48.625 209.433594 C 49.6875 209.257812 51.203125 209.023438 53.023438 208.730469 C 54.828125 208.429688 56.953125 208.066406 59.226562 207.695312 C 61.488281 207.308594 63.914062 206.878906 66.328125 206.445312 C 68.742188 206.027344 71.167969 205.605469 73.433594 205.175781 C 74.5625 204.964844 75.660156 204.753906 76.699219 204.570312 C 77.734375 204.359375 78.714844 204.160156 79.613281 203.984375 C 81.421875 203.636719 82.925781 203.308594 83.976562 203.085938 C 85.035156 202.855469 85.632812 202.726562 85.632812 202.726562 C 85.632812 202.726562 85.023438 202.785156 83.953125 202.878906 C 82.878906 202.96875 81.351562 203.121094 79.507812 203.320312 C 78.597656 203.414062 77.605469 203.519531 76.558594 203.636719 C 75.507812 203.765625 74.398438 203.890625 73.257812 204.019531 C 70.972656 204.289062 68.535156 204.59375 66.097656 204.917969 C 63.660156 205.234375 61.222656 205.523438 58.945312 205.839844 C 56.660156 206.15625 54.539062 206.445312 52.707031 206.691406 C 50.886719 206.960938 49.371094 207.179688 48.296875 207.332031 C 47.84375 207.402344 47.480469 207.460938 47.203125 207.496094 C 45.171875 205.128906 44.777344 203.121094 46.035156 201.523438 Z M 147.410156 179.109375 C 147.890625 177.71875 148.449219 176.367188 149.03125 175.039062 C 149.371094 174.292969 149.730469 173.554688 150.117188 172.820312 C 171.460938 169.636719 199.601562 169.90625 212.363281 170.234375 C 198.679688 171.910156 179.9375 174.140625 179.683594 174.164062 L 179.636719 174.175781 C 167.484375 176.132812 156.34375 178.59375 146.734375 181.089844 C 146.957031 180.425781 147.164062 179.761719 147.410156 179.109375 Z M 141.578125 182.46875 C 143.832031 173.078125 148.636719 166.898438 149.730469 165.578125 C 150.6875 165.402344 151.667969 165.242188 152.660156 165.078125 C 151.351562 166.640625 150.199219 168.332031 149.171875 170.09375 C 148.414062 171.421875 147.726562 172.773438 147.097656 174.164062 C 146.476562 175.550781 145.90625 176.960938 145.40625 178.398438 C 145.136719 179.109375 144.914062 179.84375 144.667969 180.554688 C 144.554688 180.949219 144.4375 181.335938 144.320312 181.730469 C 143.386719 181.976562 142.476562 182.222656 141.578125 182.46875 Z M 102.753906 182.023438 C 109.4375 179.984375 127.617188 174.710938 142.605469 173.078125 C 141.3125 175.867188 140.074219 179.238281 139.257812 183.121094 C 124.527344 187.273438 114.484375 191.109375 111.5 192.300781 C 108.246094 186.898438 98.332031 188.683594 97.890625 188.777344 L 95.019531 189.300781 C 96.757812 187.433594 99.5 184.695312 102.753906 182.023438 Z M 108.421875 197.78125 C 108.175781 197.898438 107.894531 198.0625 107.570312 198.246094 C 107.230469 198.433594 106.859375 198.65625 106.449219 198.921875 C 104.792969 199.949219 102.554688 201.582031 100.070312 203.753906 C 98.824219 204.835938 97.515625 206.050781 96.164062 207.378906 C 95.488281 208.03125 94.832031 208.777344 94.15625 209.363281 C 93.457031 209.945312 92.664062 210.46875 91.8125 210.878906 C 90.949219 211.273438 90.003906 211.589844 89.058594 211.742188 C 88.851562 211.789062 88.546875 211.824219 88.3125 211.847656 L 87.53125 211.929688 C 86.996094 211.984375 86.472656 212.042969 85.933594 212.101562 C 83.800781 212.324219 81.644531 212.546875 79.472656 212.78125 C 65.023438 214.296875 50.585938 215.824219 46.175781 216.277344 L 46.546875 214.621094 L 80.757812 210.691406 L 85.140625 210.191406 L 87.347656 209.945312 L 87.90625 209.875 C 88.082031 209.851562 88.300781 209.804688 88.488281 209.769531 C 88.886719 209.6875 89.269531 209.605469 89.644531 209.492188 C 91.160156 209.035156 92.582031 208.289062 93.820312 207.296875 C 94.121094 207.054688 94.425781 206.773438 94.695312 206.527344 L 95.5 205.769531 C 96.023438 205.269531 96.570312 204.777344 97.109375 204.289062 C 99.289062 202.351562 101.539062 200.476562 103.894531 198.796875 C 105.074219 197.945312 106.273438 197.140625 107.523438 196.417969 C 108.117188 196.066406 108.734375 195.726562 109.355469 195.414062 C 109.097656 196.160156 108.863281 196.90625 108.644531 197.664062 C 108.574219 197.699219 108.492188 197.734375 108.421875 197.78125 Z M 142.945312 187.121094 C 142.746094 188.007812 142.570312 188.90625 142.40625 189.804688 L 123.910156 195.425781 L 142.046875 191.960938 C 142 192.300781 141.941406 192.625 141.894531 192.953125 L 127.421875 197.199219 L 141.625 195.039062 C 141.578125 195.378906 141.542969 195.714844 141.507812 196.054688 C 141.496094 196.148438 141.484375 196.242188 141.484375 196.335938 L 131.140625 198.796875 L 141.300781 198.304688 C 141.113281 200.566406 141.03125 202.820312 140.984375 205.082031 C 140.960938 208.089844 141.066406 211.101562 141.289062 214.097656 C 141.507812 217.105469 141.859375 220.09375 142.3125 223.066406 L 142.699219 225.292969 L 142.898438 226.402344 L 143.003906 226.949219 L 143.058594 227.394531 C 143.152344 228.558594 142.6875 229.761719 141.824219 230.566406 C 141.402344 230.972656 140.878906 231.289062 140.332031 231.464844 C 140.191406 231.5 140.039062 231.570312 139.910156 231.582031 L 139.726562 231.613281 C 139.65625 231.625 139.621094 231.648438 139.503906 231.648438 L 139.011719 231.671875 L 114.148438 231.671875 L 113.925781 231.660156 C 113.34375 231.625 112.761719 231.464844 112.234375 231.195312 C 111.722656 230.902344 111.265625 230.519531 110.929688 230.039062 C 110.847656 229.925781 110.753906 229.796875 110.695312 229.691406 C 110.636719 229.609375 110.554688 229.421875 110.484375 229.257812 L 110.101562 228.292969 C 109.972656 227.953125 109.855469 227.613281 109.738281 227.265625 C 109.632812 226.925781 109.515625 226.589844 109.414062 226.238281 C 109.226562 225.550781 109.015625 224.851562 108.863281 224.140625 C 108.539062 222.738281 108.328125 221.304688 108.164062 219.859375 C 107.851562 216.964844 107.859375 214.039062 108.082031 211.125 C 108.316406 208.207031 108.757812 205.292969 109.402344 202.421875 C 109.996094 199.75 110.742188 197.070312 111.675781 194.515625 C 113.585938 193.746094 125.53125 189.011719 143.667969 184.101562 C 143.398438 185.101562 143.140625 186.105469 142.945312 187.121094 Z M 111.394531 170.511719 C 112.328125 170.164062 140.574219 159.503906 170.140625 158.8125 C 170.410156 158.824219 197.222656 159.222656 216.117188 164.378906 C 218.847656 165.125 221.191406 166.710938 222.882812 168.914062 C 222.007812 169.03125 221.003906 169.148438 219.898438 169.289062 C 217.214844 166.3125 208.328125 164.738281 206.4375 164.4375 C 168.636719 159.398438 156.414062 162.207031 155.296875 162.5 C 130.417969 166.265625 112.96875 173.160156 112.78125 173.230469 C 102.625 177.417969 93.222656 188.007812 91.566406 189.941406 L 85.269531 191.097656 C 89.480469 186.386719 99.976562 175.539062 111.394531 170.511719 Z M 253.359375 190.886719 C 250.828125 190.886719 248.691406 187.273438 248.691406 183.003906 C 248.691406 178.746094 250.828125 175.132812 253.359375 175.132812 C 255.878906 175.132812 258.011719 178.746094 258.011719 183.003906 C 258.011719 187.273438 255.878906 190.886719 253.359375 190.886719 Z M 305.328125 179.996094 L 305.726562 180.179688 L 305.738281 180.179688 C 309.515625 181.941406 313.164062 186.957031 315.042969 189.863281 C 315.824219 191.074219 316.546875 192.496094 317.328125 194.328125 C 319.582031 199.671875 324.804688 201.535156 326.695312 202.050781 L 327.125 203.855469 C 318.71875 198.726562 308.757812 196.371094 299.042969 195.554688 C 298.949219 195.390625 298.84375 195.226562 298.726562 195.039062 C 298.515625 194.679688 298.285156 194.257812 298.039062 193.792969 C 297.804688 193.3125 297.550781 192.800781 297.304688 192.253906 C 297.175781 191.972656 297.058594 191.679688 296.941406 191.390625 C 296.8125 191.085938 296.699219 190.78125 296.582031 190.480469 C 296.347656 189.851562 296.136719 189.195312 295.929688 188.53125 C 295.730469 187.855469 295.507812 187.179688 295.355469 186.480469 C 295.261719 186.128906 295.179688 185.78125 295.101562 185.441406 C 295.03125 185.089844 294.960938 184.742188 294.890625 184.390625 C 294.75 183.703125 294.621094 182.980469 294.433594 182.316406 C 294.085938 180.960938 293.617188 179.75 293.117188 178.757812 C 292.617188 177.777344 292.136719 176.996094 291.742188 176.484375 C 291.367188 175.960938 291.109375 175.703125 291.109375 175.703125 C 291.109375 175.703125 291.296875 176.015625 291.578125 176.578125 C 291.730469 176.855469 291.882812 177.21875 292.054688 177.613281 C 292.230469 178.023438 292.417969 178.476562 292.582031 178.992188 C 292.929688 180.007812 293.28125 181.207031 293.527344 182.515625 C 293.652344 183.179688 293.722656 183.84375 293.828125 184.566406 C 293.875 184.929688 293.921875 185.289062 293.96875 185.652344 C 294.027344 186.011719 294.097656 186.375 294.167969 186.734375 C 294.285156 187.457031 294.457031 188.183594 294.621094 188.894531 C 294.796875 189.59375 294.996094 190.292969 295.203125 190.945312 C 295.308594 191.285156 295.425781 191.597656 295.53125 191.914062 C 295.648438 192.242188 295.753906 192.542969 295.882812 192.847656 C 296.101562 193.441406 296.347656 194 296.59375 194.503906 C 296.746094 194.828125 296.894531 195.121094 297.046875 195.402344 C 290.410156 194.980469 283.949219 195.238281 278.269531 195.785156 C 274.632812 196.136719 270.96875 196.753906 267.296875 197.617188 C 259.75 193.804688 259.914062 186.269531 259.960938 185.417969 C 260.003906 185.078125 260.050781 184.730469 260.074219 184.378906 L 260.144531 184.378906 C 260.191406 183.410156 260.203125 182.46875 260.15625 181.570312 C 260.039062 179.203125 259.433594 176.960938 258.371094 174.945312 C 264.144531 173.894531 286.199219 170.792969 305.328125 179.996094 Z M 325.285156 179.480469 C 327.183594 179.820312 328.863281 180.8125 330.078125 182.210938 C 329.65625 182.070312 329.238281 181.988281 328.792969 181.988281 C 325.644531 181.988281 323.183594 185.582031 323.183594 190.152344 C 323.183594 194.527344 325.433594 197.992188 328.386719 198.28125 L 327.136719 199.960938 C 325.503906 199.484375 321.121094 197.839844 319.289062 193.511719 C 318.460938 191.550781 317.679688 190.023438 316.828125 188.707031 C 314.808594 185.570312 311.894531 181.730469 308.652344 179.433594 C 311.8125 178.816406 317.738281 178.140625 325.285156 179.480469 Z M 328.792969 196.183594 C 326.90625 196.183594 325.308594 193.417969 325.308594 190.152344 C 325.308594 186.886719 326.90625 184.125 328.792969 184.125 C 330.671875 184.125 332.269531 186.886719 332.269531 190.152344 C 332.269531 192.195312 331.652344 194.035156 330.71875 195.132812 L 330.71875 195.121094 L 330.683594 195.179688 C 330.136719 195.808594 329.484375 196.183594 328.792969 196.183594 Z M 297.828125 228.863281 L 297.363281 228.863281 L 298.085938 224.96875 L 296.546875 228.863281 L 295.53125 228.863281 C 294.273438 228.863281 293.351562 227.671875 293.652344 226.449219 L 294.796875 221.96875 C 295.019531 221.105469 295.789062 220.511719 296.675781 220.511719 L 307.589844 220.511719 L 307.21875 224.96875 L 308.289062 220.511719 L 308.875 220.511719 L 308.722656 223.40625 L 309.992188 220.511719 L 310.320312 220.511719 C 310.625 220.511719 310.902344 220.582031 311.160156 220.699219 C 311.171875 220.710938 311.195312 220.722656 311.21875 220.734375 C 311.242188 220.746094 311.277344 220.769531 311.300781 220.78125 C 311.382812 220.828125 311.464844 220.886719 311.542969 220.957031 C 312.070312 221.386719 312.359375 222.097656 312.210938 222.832031 L 311.289062 227.3125 C 311.113281 228.222656 310.320312 228.863281 309.398438 228.863281 L 298.503906 228.863281 L 298.761719 226.578125 Z M 333.507812 212.976562 C 333.703125 213.398438 333.878906 213.828125 334.042969 214.261719 L 334.078125 214.378906 C 334.253906 214.878906 334.382812 215.332031 334.472656 215.777344 C 334.589844 216.277344 334.648438 216.792969 334.648438 217.28125 L 334.648438 217.375 C 334.648438 217.386719 334.648438 217.398438 334.648438 217.410156 C 334.636719 221.433594 331.3125 224.78125 327.242188 224.875 L 314.53125 225.152344 L 314.707031 224.164062 C 314.984375 222.691406 314.589844 221.1875 313.644531 220.046875 C 312.699219 218.902344 311.3125 218.226562 309.820312 218.214844 L 296.941406 218.074219 C 296.929688 218.074219 296.917969 218.074219 296.894531 218.074219 C 294.667969 218.074219 292.6875 219.554688 292.066406 221.691406 L 291.167969 224.757812 L 265.101562 224.757812 C 261.394531 224.757812 258.175781 222.132812 257.429688 218.527344 C 257.324219 217.96875 257.265625 217.398438 257.277344 216.816406 C 257.382812 211.425781 260.613281 207.578125 266.898438 205.363281 C 267.363281 205.199219 267.867188 205.058594 268.4375 204.917969 C 271.4375 204.21875 281.992188 202.050781 295.847656 202.421875 C 295.882812 202.46875 295.90625 202.503906 295.941406 202.550781 C 296.101562 202.773438 296.253906 203.003906 296.417969 203.261719 C 296.570312 203.507812 296.710938 203.785156 296.871094 204.066406 C 297 204.347656 297.152344 204.636719 297.269531 204.941406 C 297.386719 205.246094 297.527344 205.535156 297.621094 205.851562 C 297.710938 206.15625 297.828125 206.457031 297.898438 206.761719 C 297.980469 207.054688 298.0625 207.34375 298.132812 207.625 C 298.179688 207.902344 298.238281 208.171875 298.285156 208.417969 C 298.390625 208.90625 298.425781 209.328125 298.46875 209.605469 C 298.503906 209.910156 298.527344 210.074219 298.527344 210.074219 C 298.527344 210.074219 298.539062 209.910156 298.5625 209.605469 C 298.574219 209.316406 298.621094 208.894531 298.609375 208.382812 C 298.621094 208.125 298.621094 207.859375 298.621094 207.566406 C 298.597656 207.261719 298.585938 206.960938 298.5625 206.632812 C 298.550781 206.316406 298.492188 205.992188 298.457031 205.652344 C 298.425781 205.304688 298.34375 204.976562 298.285156 204.625 C 298.226562 204.289062 298.121094 203.949219 298.050781 203.613281 C 297.933594 203.285156 297.851562 202.949219 297.722656 202.644531 C 297.710938 202.585938 297.6875 202.539062 297.664062 202.480469 C 298.621094 202.527344 299.578125 202.574219 300.546875 202.644531 C 300.652344 202.820312 300.746094 203.015625 300.863281 203.226562 C 301.128906 203.777344 301.421875 204.429688 301.679688 205.152344 C 301.816406 205.511719 301.933594 205.898438 302.0625 206.292969 C 302.167969 206.691406 302.296875 207.085938 302.390625 207.496094 C 302.472656 207.902344 302.585938 208.3125 302.65625 208.71875 C 302.726562 209.128906 302.808594 209.535156 302.855469 209.921875 C 302.914062 210.320312 302.960938 210.703125 303.007812 211.066406 C 303.03125 211.425781 303.066406 211.777344 303.089844 212.089844 C 303.148438 212.734375 303.148438 213.257812 303.160156 213.628906 C 303.183594 214.003906 303.183594 214.226562 303.183594 214.226562 C 303.183594 214.226562 303.207031 214.015625 303.253906 213.640625 C 303.300781 213.269531 303.390625 212.734375 303.425781 212.089844 C 303.449219 211.765625 303.472656 211.414062 303.496094 211.054688 C 303.507812 210.679688 303.519531 210.285156 303.53125 209.886719 C 303.542969 209.480469 303.519531 209.058594 303.507812 208.628906 C 303.507812 208.195312 303.460938 207.765625 303.4375 207.332031 C 303.402344 206.890625 303.34375 206.457031 303.300781 206.027344 C 303.230469 205.605469 303.171875 205.175781 303.089844 204.765625 C 302.949219 204.054688 302.773438 203.390625 302.597656 202.808594 C 303.355469 202.867188 304.117188 202.9375 304.886719 203.015625 C 305.1875 203.753906 305.527344 204.683594 305.816406 205.652344 C 305.980469 206.191406 306.132812 206.726562 306.25 207.238281 C 306.367188 207.753906 306.460938 208.242188 306.519531 208.664062 C 306.589844 209.082031 306.632812 209.433594 306.65625 209.675781 C 306.679688 209.933594 306.691406 210.074219 306.691406 210.074219 C 306.691406 210.074219 306.714844 209.933594 306.75 209.6875 C 306.785156 209.433594 306.820312 209.082031 306.855469 208.652344 C 306.890625 208.21875 306.914062 207.707031 306.914062 207.167969 C 306.914062 206.621094 306.902344 206.050781 306.867188 205.464844 C 306.820312 204.683594 306.738281 203.914062 306.644531 203.226562 C 313.398438 204.054688 320.59375 205.570312 327.851562 208.136719 C 330.34375 209.023438 332.351562 210.738281 333.507812 212.976562 Z M 336.785156 217.316406 C 336.785156 217.304688 336.785156 217.28125 336.785156 217.269531 L 336.785156 216.207031 L 336.703125 216.207031 C 336.667969 215.917969 336.621094 215.613281 336.550781 215.332031 C 336.445312 214.84375 336.316406 214.355469 336.140625 213.839844 L 336.082031 213.652344 C 336.082031 213.652344 336.082031 213.652344 336.082031 213.640625 C 335.992188 213.386719 335.898438 213.117188 335.792969 212.859375 C 335.675781 212.570312 335.535156 212.277344 335.394531 212.007812 C 334.171875 209.433594 332.585938 207.800781 332.515625 207.730469 L 332.445312 207.660156 C 331.570312 206.925781 330.660156 206.226562 329.726562 205.570312 L 328.722656 201.40625 L 332.351562 196.496094 C 333.601562 195.015625 334.394531 192.753906 334.394531 190.164062 L 334.40625 190.164062 C 334.40625 190.164062 334.394531 190.164062 334.394531 190.152344 C 334.394531 190.152344 334.40625 190.152344 334.40625 190.152344 C 334.40625 190.152344 334.394531 190.140625 334.394531 190.140625 C 334.417969 188.800781 334.289062 187.308594 333.996094 185.6875 C 333.261719 181.476562 329.902344 178.140625 325.65625 177.382812 C 315.125 175.515625 307.707031 177.359375 305.875 177.894531 C 285.28125 168.167969 261.558594 172.144531 257.171875 173.007812 C 256.390625 171.933594 255.46875 170.957031 254.417969 170.070312 C 250.921875 167.140625 246.3125 165.8125 241.777344 166.40625 L 225.261719 168.601562 C 223.277344 165.519531 220.257812 163.304688 216.675781 162.324219 C 197.527344 157.101562 170.445312 156.691406 170.128906 156.691406 C 139.792969 157.390625 110.894531 168.425781 110.613281 168.542969 L 110.566406 168.554688 C 96.28125 174.828125 83.871094 189.347656 81.910156 191.714844 L 48.261719 197.921875 C 46.675781 198.210938 45.289062 199.015625 44.367188 200.207031 C 43.226562 201.640625 41.929688 204.660156 45.640625 208.941406 L 42.933594 221.070312 L 41.582031 221.070312 C 39.726562 221.070312 38.210938 222.589844 38.210938 224.441406 C 38.210938 226.296875 39.726562 227.8125 41.582031 227.8125 L 41.648438 227.8125 L 41.625 228.910156 C 41.625 234.578125 45.835938 236.09375 45.835938 236.09375 L 45.835938 236.070312 L 55.34375 236.070312 L 55.355469 236 C 55.355469 236.035156 55.355469 236.058594 55.355469 236.09375 L 64.066406 233.269531 C 65.746094 239.195312 69.78125 243.382812 74.480469 243.382812 C 75.054688 243.382812 75.613281 243.3125 76.160156 243.195312 L 81.246094 242.964844 C 84.195312 242.824219 86.820312 240.96875 87.824219 238.238281 C 89.480469 239.136719 91.359375 239.652344 93.328125 239.652344 L 166.726562 239.652344 L 166.738281 239.628906 L 179.144531 236.1875 C 182.726562 235.195312 185 231.671875 184.382812 228.011719 C 183.949219 225.457031 183.71875 222.285156 184.125 218.808594 C 184.90625 232.945312 193.339844 244.105469 203.589844 244.105469 C 204.394531 244.105469 205.191406 244.035156 205.972656 243.894531 L 212.828125 243.183594 C 218.671875 242.566406 223.757812 239.195312 226.648438 234.261719 C 228.761719 235.789062 231.464844 236.570312 234.730469 236.570312 L 323.582031 235.078125 C 328.09375 234.996094 332.234375 232.292969 334.125 228.1875 C 335.957031 224.199219 336.84375 220.546875 336.785156 217.316406 " fill-opacity="1" fill-rule="nonzero"/></g><path fill="#f5f5dc" d="M 254.234375 187.34375 C 252.808594 187.34375 251.65625 185.394531 251.65625 183.003906 C 251.65625 180.625 252.808594 178.675781 254.234375 178.675781 C 254.828125 178.675781 255.363281 179.015625 255.796875 179.585938 C 255.210938 178.410156 254.335938 177.648438 253.359375 177.648438 C 251.597656 177.648438 250.175781 180.054688 250.175781 183.003906 C 250.175781 185.964844 251.597656 188.367188 253.359375 188.367188 C 254.335938 188.367188 255.210938 187.609375 255.796875 186.433594 C 255.363281 186.992188 254.828125 187.34375 254.234375 187.34375 " fill-opacity="1" fill-rule="nonzero"/><path fill="#f5f5dc" d="M 329.65625 186.609375 C 329.960938 186.609375 330.242188 186.734375 330.496094 186.957031 C 330.078125 186.257812 329.507812 185.824219 328.875 185.824219 C 327.546875 185.824219 326.460938 187.761719 326.460938 190.152344 C 326.460938 192.542969 327.546875 194.480469 328.875 194.480469 C 329.507812 194.480469 330.078125 194.046875 330.496094 193.347656 C 330.242188 193.558594 329.960938 193.6875 329.65625 193.6875 C 328.574219 193.6875 327.6875 192.101562 327.6875 190.152344 C 327.6875 188.195312 328.574219 186.609375 329.65625 186.609375 " fill-opacity="1" fill-rule="nonzero"/><path fill="#f5f5dc" d="M 203.589844 231.441406 C 198.0625 231.441406 193.574219 224.804688 193.574219 216.664062 C 193.574219 208.511719 198.0625 201.875 203.589844 201.875 C 209.109375 201.875 213.609375 208.511719 213.609375 216.664062 C 213.609375 224.804688 209.109375 231.441406 203.589844 231.441406 Z M 203.589844 199.75 C 196.886719 199.75 191.4375 207.332031 191.4375 216.664062 C 191.4375 225.980469 196.886719 233.5625 203.589844 233.5625 C 210.285156 233.5625 215.734375 225.980469 215.734375 216.664062 C 215.734375 207.332031 210.285156 199.75 203.589844 199.75 " fill-opacity="1" fill-rule="nonzero"/><path fill="#f5f5dc" d="M 205.984375 207.902344 C 207.125 207.902344 208.175781 208.441406 209.0625 209.363281 C 207.789062 207.15625 205.949219 205.78125 203.90625 205.78125 C 200.070312 205.78125 196.957031 210.644531 196.957031 216.664062 C 196.957031 222.65625 200.070312 227.53125 203.90625 227.53125 C 205.949219 227.53125 207.789062 226.15625 209.0625 223.953125 C 208.175781 224.875 207.125 225.410156 205.984375 225.410156 C 202.890625 225.410156 200.382812 221.492188 200.382812 216.664062 C 200.382812 211.824219 202.890625 207.902344 205.984375 207.902344 " fill-opacity="1" fill-rule="nonzero"/><path fill="#f5f5dc" d="M 191.4375 116.605469 L 192.875 116.605469 L 195.765625 97.023438 L 187.113281 97.023438 L 190.003906 116.605469 L 191.4375 116.605469 " fill-opacity="1" fill-rule="nonzero"/><path fill="#f5f5dc" d="M 213.191406 119.859375 L 221.367188 101.828125 L 213.039062 99.449219 L 210.425781 119.066406 L 211.800781 119.464844 L 213.191406 119.859375 " fill-opacity="1" fill-rule="nonzero"/><path fill="#f5f5dc" d="M 231.816406 128.59375 L 244.644531 113.515625 L 240.972656 111.21875 L 237.296875 108.929688 L 229.378906 127.066406 L 230.589844 127.835938 L 231.816406 128.59375 " fill-opacity="1" fill-rule="nonzero"/><path fill="#f5f5dc" d="M 247.304688 142.125 L 263.796875 131.160156 L 258.011719 124.722656 L 245.378906 139.980469 L 246.347656 141.050781 L 247.304688 142.125 " fill-opacity="1" fill-rule="nonzero"/><path fill="#f5f5dc" d="M 171.074219 119.464844 L 172.464844 119.066406 L 169.839844 99.449219 L 161.511719 101.828125 L 169.6875 119.859375 L 171.074219 119.464844 " fill-opacity="1" fill-rule="nonzero"/><path fill="#f5f5dc" d="M 152.285156 127.835938 L 153.511719 127.066406 L 145.578125 108.929688 L 141.90625 111.21875 L 138.230469 113.515625 L 151.0625 128.59375 L 152.285156 127.835938 " fill-opacity="1" fill-rule="nonzero"/><path fill="#f5f5dc" d="M 136.527344 141.050781 L 137.496094 139.980469 L 124.867188 124.722656 L 119.082031 131.160156 L 135.574219 142.125 L 136.527344 141.050781 " fill-opacity="1" fill-rule="nonzero"/><g clip-path="url(#9414bafcaa)"><path fill="#f5f5dc" d="M 191.4375 37.507812 L 197.65625 50.101562 L 211.570312 52.121094 L 201.503906 61.941406 L 203.882812 75.785156 L 191.4375 69.242188 L 179.007812 75.785156 L 181.375 61.941406 L 171.320312 52.121094 L 185.222656 50.101562 L 191.4375 37.507812 " fill-opacity="1" fill-rule="nonzero"/></g><g fill="#f5f5dc" fill-opacity="1"><g transform="translate(67.006752, 308.011855)"><g><path d="M 44.355469 -7.199219 L 43.902344 -7.523438 C 41.113281 -4.085938 35.339844 -2.011719 30.414062 -2.011719 C 19.128906 -2.011719 9.53125 -12.773438 9.53125 -26.328125 C 9.53125 -38.453125 16.925781 -44.9375 25.875 -44.9375 C 35.796875 -44.9375 40.789062 -36.964844 37.222656 -28.53125 L 37.417969 -28.46875 L 45.328125 -39.492188 C 42.34375 -43.125 37.09375 -46.300781 28.921875 -46.300781 C 15.5625 -46.300781 2.917969 -37.546875 2.917969 -22.761719 C 2.917969 -8.691406 14.203125 0.90625 27.625 0.90625 C 35.859375 0.90625 41.566406 -2.789062 44.355469 -7.199219 Z M 44.355469 -7.199219 "/></g></g></g><g fill="#f5f5dc" fill-opacity="1"><g transform="translate(114.265966, 308.011855)"><g><path d="M 32.8125 -5.316406 L 32.8125 -29.441406 C 29.828125 -31.0625 26.78125 -31.839844 22.632812 -31.839844 C 9.207031 -31.839844 2.59375 -23.800781 2.59375 -14.527344 C 2.59375 -4.992188 9.339844 0.453125 18.222656 0.453125 C 21.269531 0.453125 23.863281 -0.195312 25.9375 -1.296875 C 25.9375 -1.230469 25.875 -1.230469 25.875 -1.230469 L 35.339844 0.777344 L 35.339844 0.582031 C 33.394531 -0.714844 32.8125 -1.816406 32.8125 -5.316406 Z M 8.367188 -17.960938 C 8.367188 -25.613281 12.449219 -30.609375 19.324219 -30.609375 C 23.019531 -30.609375 25.613281 -29.117188 27.496094 -27.105469 L 27.496094 -6.160156 C 27.496094 -5.058594 27.429688 -4.28125 27.367188 -3.632812 C 26.132812 -2.203125 24.578125 -1.296875 21.917969 -1.296875 C 14.203125 -1.296875 8.367188 -8.691406 8.367188 -17.960938 Z M 8.367188 -17.960938 "/></g></g></g><g fill="#f5f5dc" fill-opacity="1"><g transform="translate(152.190029, 308.011855)"><g><path d="M 20.230469 -31.773438 C 15.953125 -31.773438 12.257812 -29.050781 10.765625 -24.902344 L 9.921875 -24.902344 L 9.921875 -26.976562 L 10.246094 -31.773438 L 0.648438 -30.800781 L 0.648438 -30.542969 C 2.011719 -30.414062 3.695312 -29.960938 4.605469 -29.375 L 4.605469 -4.472656 L 4.28125 0 L 12.449219 0 C 10.503906 -1.296875 9.921875 -2.527344 9.921875 -6.03125 L 9.921875 -19.648438 C 10.570312 -24.1875 12.839844 -28.402344 16.210938 -28.402344 C 18.222656 -28.402344 19.84375 -26.910156 18.027344 -22.4375 L 18.285156 -22.4375 L 23.605469 -30.996094 C 22.371094 -31.582031 21.335938 -31.773438 20.230469 -31.773438 Z M 20.230469 -31.773438 "/></g></g></g><g fill="#f5f5dc" fill-opacity="1"><g transform="translate(176.75964, 308.011855)"><g><path d="M 14.589844 0.453125 C 22.632812 0.453125 27.496094 -3.761719 27.496094 -9.46875 C 27.496094 -12.320312 26.523438 -17.054688 16.015625 -18.675781 C 12.0625 -19.324219 7.328125 -20.554688 7.328125 -25.289062 C 7.328125 -27.949219 8.625 -30.867188 12.90625 -30.867188 C 17.183594 -30.867188 23.214844 -27.882812 22.957031 -22.113281 L 23.085938 -22.113281 L 27.105469 -28.207031 C 24.511719 -30.21875 19.90625 -31.839844 15.238281 -31.839844 C 8.558594 -31.839844 3.113281 -28.53125 3.113281 -22.761719 C 3.113281 -19.324219 5.121094 -14.71875 15.109375 -13.097656 C 20.039062 -12.320312 23.152344 -10.636719 23.152344 -6.289062 C 23.152344 -3.242188 21.722656 -0.519531 17.054688 -0.519531 C 12.125 -0.519531 5.902344 -3.632812 5.902344 -9.273438 L 5.769531 -9.273438 L 2.269531 -3.371094 C 5.058594 -1.230469 9.46875 0.453125 14.589844 0.453125 Z M 14.589844 0.453125 "/></g></g></g><g fill="#f5f5dc" fill-opacity="1"><g transform="translate(206.515445, 308.011855)"><g><path d="M 32.230469 -6.550781 C 30.21875 -3.695312 24.640625 -2.335938 21.140625 -2.335938 C 13.359375 -2.335938 8.367188 -9.273438 8.300781 -18.027344 L 27.234375 -18.027344 C 35.277344 -18.027344 33.71875 -31.839844 20.363281 -31.839844 C 11.023438 -31.839844 2.59375 -25.355469 2.59375 -14.914062 C 2.59375 -4.992188 10.117188 0.453125 18.742188 0.453125 C 25.355469 0.453125 30.609375 -2.660156 32.554688 -6.289062 Z M 17.960938 -30.671875 C 26.652344 -30.671875 28.921875 -19.324219 25.097656 -19.257812 L 8.300781 -19.066406 C 8.625 -26.394531 12.449219 -30.671875 17.960938 -30.671875 Z M 17.960938 -30.671875 "/></g></g></g><g fill="#f5f5dc" fill-opacity="1"><g transform="translate(241.133298, 308.011855)"><g><path d="M 9.792969 -6.289062 L 9.792969 -46.882812 L 10.117188 -49.285156 L -0.648438 -44.226562 L -0.648438 -43.835938 C 3.371094 -45.070312 4.472656 -45.394531 4.472656 -42.800781 L 4.472656 -4.019531 L 3.890625 0 L 13.488281 0 L 13.488281 -0.257812 C 10.246094 -0.972656 9.792969 -2.789062 9.792969 -6.289062 Z M 9.792969 -6.289062 "/></g></g></g><g fill="#f5f5dc" fill-opacity="1"><g transform="translate(255.589828, 308.011855)"><g><path d="M 9.792969 -6.289062 L 9.792969 -46.882812 L 10.117188 -49.285156 L -0.648438 -44.226562 L -0.648438 -43.835938 C 3.371094 -45.070312 4.472656 -45.394531 4.472656 -42.800781 L 4.472656 -4.019531 L 3.890625 0 L 13.488281 0 L 13.488281 -0.257812 C 10.246094 -0.972656 9.792969 -2.789062 9.792969 -6.289062 Z M 9.792969 -6.289062 "/></g></g></g><g fill="#f5f5dc" fill-opacity="1"><g transform="translate(270.046358, 308.011855)"><g><path d="M 32.8125 -5.316406 L 32.8125 -29.441406 C 29.828125 -31.0625 26.78125 -31.839844 22.632812 -31.839844 C 9.207031 -31.839844 2.59375 -23.800781 2.59375 -14.527344 C 2.59375 -4.992188 9.339844 0.453125 18.222656 0.453125 C 21.269531 0.453125 23.863281 -0.195312 25.9375 -1.296875 C 25.9375 -1.230469 25.875 -1.230469 25.875 -1.230469 L 35.339844 0.777344 L 35.339844 0.582031 C 33.394531 -0.714844 32.8125 -1.816406 32.8125 -5.316406 Z M 8.367188 -17.960938 C 8.367188 -25.613281 12.449219 -30.609375 19.324219 -30.609375 C 23.019531 -30.609375 25.613281 -29.117188 27.496094 -27.105469 L 27.496094 -6.160156 C 27.496094 -5.058594 27.429688 -4.28125 27.367188 -3.632812 C 26.132812 -2.203125 24.578125 -1.296875 21.917969 -1.296875 C 14.203125 -1.296875 8.367188 -8.691406 8.367188 -17.960938 Z M 8.367188 -17.960938 "/></g></g></g><g fill="#f5f5dc" fill-opacity="1"><g transform="translate(91.576865, 122.960563)"><g><path d="M 3.105469 -16.765625 C 3.609375 -18.652344 3.730469 -20.65625 2.691406 -21.628906 C 0.996094 -23.214844 -1.304688 -22.84375 -3.953125 -21.503906 L -10.839844 -13.621094 L -11.949219 -12.433594 L -11.328125 -11.261719 L -9.328125 -12.207031 L 0.660156 -2.859375 L -0.304688 -1.53125 L 0.523438 -0.261719 L 1.855469 -1.984375 L 7.417969 -7.925781 C 11.027344 -11.777344 10.519531 -15.527344 8.722656 -17.214844 C 7.332031 -18.515625 5.4375 -18.503906 3.105469 -16.765625 Z M -2.855469 -18.347656 C -2.527344 -18.15625 -1.632812 -17.429688 -1.257812 -17.078125 C -0.15625 -16.046875 0.183594 -14.746094 0.199219 -13.976562 L 0.125 -13.898438 L -1.289062 -12.914062 L -5.597656 -16.945312 L -5.117188 -17.824219 Z M 4.617188 -7.382812 L 0.117188 -11.59375 L 1.566406 -13.089844 C 2.757812 -13.484375 3.722656 -13.660156 4.964844 -12.5 C 6.46875 -11.09375 6.738281 -9.789062 6.515625 -8.835938 Z M 4.617188 -7.382812 "/></g></g></g><g fill="#f5f5dc" fill-opacity="1"><g transform="translate(108.524776, 105.541318)"><g><path d="M 0.648438 -21.960938 L 1.054688 -20.695312 L 3.191406 -21.273438 L 9.089844 -13.355469 C 9.328125 -12.117188 9.414062 -10.761719 7.96875 -8.535156 C 5.851562 -8.152344 4.414062 -8.035156 2.261719 -10.925781 L -2.722656 -17.613281 L -1.539062 -18.75 L -2.132812 -20.144531 L -3.746094 -18.6875 L -9.726562 -14.230469 L -9.320312 -12.964844 L -7.183594 -13.542969 L -1.863281 -6.402344 C 0.898438 -2.699219 5.632812 -3.777344 8.539062 -5.945312 C 11.445312 -8.113281 11.652344 -11.683594 11.152344 -13.65625 L 4.300781 -22.847656 L 5.484375 -23.984375 L 4.894531 -25.378906 L 3.277344 -23.921875 Z M 0.648438 -21.960938 "/></g></g></g><g fill="#f5f5dc" fill-opacity="1"><g transform="translate(128.393204, 91.336078)"><g><path d="M 3.804688 -21.148438 L 3.980469 -19.832031 L 6.1875 -20.023438 L 6.429688 -12.679688 L 0.523438 -17.867188 L 1.890625 -18.773438 L 1.550781 -20.253906 L -0.292969 -19.101562 L -7.179688 -15.664062 L -7.003906 -14.347656 L -4.796875 -14.539062 L 3.09375 -8.675781 L 5.285156 -4.285156 L 3.917969 -3.375 L 4.257812 -1.898438 L 6.101562 -3.046875 L 12.773438 -6.378906 L 12.597656 -7.695312 L 10.394531 -7.503906 L 8.105469 -12.085938 L 7.921875 -21.558594 L 9.289062 -22.46875 L 8.953125 -23.945312 L 7.105469 -22.796875 Z M 3.804688 -21.148438 "/></g></g></g><g fill="#f5f5dc" fill-opacity="1"><g transform="translate(233.080432, 77.686928)"><g><path d="M 3.429688 2.03125 C 8.367188 4.460938 14.25 5.683594 16.023438 2.078125 C 17.285156 -0.492188 15.167969 -3.238281 13.261719 -5.628906 L 12.667969 -6.375 C 11.730469 -7.554688 11.597656 -8.316406 12.085938 -9.3125 C 12.378906 -9.90625 13.011719 -10.191406 13.527344 -10.234375 L 14.890625 -5.28125 L 20.003906 -5.914062 L 18.066406 -10.707031 C 12.632812 -13.378906 8.128906 -13.632812 6.582031 -10.488281 C 5.5 -8.285156 6.8125 -5.585938 8.316406 -3.566406 L 8.925781 -2.746094 C 10.574219 -0.535156 10.886719 0.179688 10.417969 1.132812 C 9.804688 2.378906 8.730469 1.933594 7.96875 1.558594 L 6.601562 -3.394531 L 1.492188 -2.761719 Z M 3.429688 2.03125 "/></g></g></g><g fill="#f5f5dc" fill-opacity="1"><g transform="translate(251.99762, 87.421505)"><g><path d="M 10.441406 5.527344 L 7.636719 4 L 11.539062 -1.507812 L 15.054688 1.519531 L 16.554688 -0.246094 L 12.355469 -2.664062 L 16.210938 -8.113281 L 18.082031 -6.570312 L 16.898438 -2.347656 L 19.371094 -0.480469 L 22.601562 -5.101562 L 10.691406 -13.53125 L 9.617188 -12.753906 L 10.824219 -10.902344 L 2.921875 0.265625 L 1.476562 -0.511719 L 0.332031 0.484375 L 2.21875 1.570312 L 12.902344 9.132812 L 16.695312 4.941406 L 14.144531 3.136719 Z M 10.441406 5.527344 "/></g></g></g><g fill="#f5f5dc" fill-opacity="1"><g transform="translate(269.908534, 100.650091)"><g><path d="M 9.511719 7.125 L 6.878906 5.191406 L 17.136719 -5.234375 L 18.757812 -3.636719 L 20.148438 -4.335938 L 12.726562 -11.636719 L 11.539062 -11.042969 L 12.4375 -9.019531 L 2.839844 0.730469 L 1.539062 -0.265625 L 0.25 0.53125 L 1.9375 1.90625 L 11.269531 11.089844 L 15.683594 7.558594 L 13.542969 5.453125 Z M 9.511719 7.125 "/></g></g></g><g fill="#f5f5dc" fill-opacity="1"><g transform="translate(285.223102, 116.324445)"><g><path d="M 8.253906 8.550781 L 5.964844 6.222656 L 17.753906 -2.433594 L 19.097656 -0.601562 L 20.582031 -1.066406 L 14.417969 -9.460938 L 13.152344 -9.0625 L 13.714844 -6.921875 L 2.6875 1.171875 L 1.5625 -0.0195312 L 0.160156 0.5625 L 1.609375 2.191406 L 9.355469 12.742188 L 14.277344 9.960938 L 12.5 7.539062 Z M 8.253906 8.550781 "/></g></g></g></svg>